<svg width="28" height="28" viewBox="0 0 28 28" fill="none" xmlns="http://www.w3.org/2000/svg">
<path d="M28 0H0V28H28V0Z" fill="white" fill-opacity="0.01"/>
<path d="M14.3077 17.8462C18.3436 17.8462 21.6154 14.7466 21.6154 10.9231C21.6154 7.09957 18.3436 4 14.3077 4C10.2718 4 7 7.09957 7 10.9231C7 14.7466 10.2718 17.8462 14.3077 17.8462Z" fill="black"/>
<path fill-rule="evenodd" clip-rule="evenodd" d="M9.30768 10.923L13.0063 20.1537L14.2848 19.6632L15.5634 20.1537L19.3077 10.923H9.30768ZM12.0477 12.7066H16.6595L14.3308 18.4591L12.0477 12.7066Z" fill="white"/>
<path d="M12.3846 22.4617H16.2307C16.2307 23.3078 15.3654 24.0001 14.3077 24.0001C13.25 24.0001 12.3846 23.3078 12.3846 22.4617Z" fill="black"/>
<path d="M11.7115 20.6666C11.2356 20.6666 10.8461 20.2628 10.8461 19.7692C10.8461 19.2756 11.2356 18.8718 11.7115 18.8718C11.2356 18.8718 10.8461 18.4679 10.8461 17.9743C10.8461 17.4808 11.2356 17.0769 11.7115 17.0769H16.9038C17.3798 17.0769 17.7692 17.4808 17.7692 17.9743C17.7692 18.4679 17.3798 18.8718 16.9038 18.8718C17.3798 18.8718 17.7692 19.2756 17.7692 19.7692C17.7692 20.2628 17.3798 20.6666 16.9038 20.6666C17.3798 20.6666 17.7692 21.0705 17.7692 21.5641C17.7692 22.0577 17.3798 22.4615 16.9038 22.4615H11.7115C11.2356 22.4615 10.8461 22.0577 10.8461 21.5641C10.8461 21.0705 11.2356 20.6666 11.7115 20.6666Z" fill="black"/>
</svg>
