<svg width="26" height="27" viewBox="0 0 26 27" fill="none" xmlns="http://www.w3.org/2000/svg">
<path fill-rule="evenodd" clip-rule="evenodd" d="M12.9619 0.277344H22.7214C24.5513 0.277344 26 1.72602 26 3.55594V13.3155C26 20.4826 20.2053 26.2773 13.0381 26.2773H12.9619C5.79472 26.2773 0 20.4826 0 13.3155C0 6.14831 5.79472 0.35359 12.9619 0.277344Z" fill="#20A849"/>
<path fill-rule="evenodd" clip-rule="evenodd" d="M12.9992 5.96484C9.86424 5.96484 7.3125 8.52271 7.3125 11.6652C7.3125 11.6652 7.3125 11.6652 7.3125 11.7383V15.5386C7.3125 16.5617 8.18738 17.4387 9.20808 17.4387H10.812V12.9807H8.62482V11.7383C8.69773 9.25353 10.812 7.3534 13.218 7.49957C15.551 7.57265 17.3737 9.47278 17.4466 11.7383V12.9807H15.2594V17.4387H16.7175V17.5118C16.7175 18.4619 15.9155 19.2658 14.9677 19.2658H13.218C13.0721 19.2658 12.9263 19.3389 12.9263 19.485C12.9263 19.6312 13.0721 19.7773 13.218 19.7773H14.9677C16.2071 19.7773 17.2278 18.7542 17.2278 17.5118V17.3656C18.1027 17.1464 18.686 16.4156 18.686 15.5386V11.7383C18.7589 8.52271 16.2071 5.96484 12.9992 5.96484C13.0721 5.96484 12.9992 5.96484 12.9992 5.96484Z" fill="white"/>
</svg>
