<svg xmlns="http://www.w3.org/2000/svg" viewBox="0 0 236.88 164.59">
  <title>Search empty state</title>
  <g style="isolation: isolate">
    <g id="Layer_2" data-name="Layer 2">
      <g>
        <path d="M100.68,162.74c6.7.24,13.43,0,20-.4,16.6-1,34.28-2,49.26-9.93,21.81-11.61,34.15-43.22,28.74-66.8-7-30.7-29.25-50.32-53.39-68.88C126.7,2.39,93.68-4.78,74.8,12.76,61.23,25.37,62.36,44.2,62.47,61.18,62.52,70,62.4,79,59.68,87.39c-3.71,11.5-15.2,16-16.28,29.05-1.54,18.69,10.18,33,26.72,40.14C79.83,160.77,90.21,162.36,100.68,162.74Z" style="fill: #e8e8e8"/>
        <line x1="154.28" y1="88.51" x2="126.76" y2="82.91" style="fill: #f1f2f2"/>
        <path d="M138,68.58,85.43,79.47v51.19a.85.85,0,0,0,.85.85h55.11S140,80.66,138,68.58Z" style="fill: #15a0b7"/>
        <path d="M138,68.58l69.73,8.85s-19.14,12.22-53.44,11.08l-14.71-1.93Z" style="fill: #17b4ce"/>
        <path d="M190,89.57l14.72-11.39-9.44-11.71s-6.38,4-14.55,10Z" style="fill: #f4f4f4"/>
        <polygon points="19.24 55.05 15.48 57.89 12.42 55.34 15.62 51.5 19.24 55.05" style="fill: #e89583"/>
        <path d="M15.91,51.4a5.13,5.13,0,0,0-1.27-2c-.94-.89-2.27-.31-3.14.86s-6,7.15-6,7.15a2.15,2.15,0,0,0,1.54.44c.85-.14,5.06-1.89,5.06-1.89Z" style="fill: #ffc400"/>
        <polygon points="172.2 86.48 164.55 80.8 159.78 88.04 165.61 87.47 172.2 86.48" style="fill: #231f20;opacity: 0.07;mix-blend-mode: multiply"/>
        <polygon points="166.96 82.59 164.14 75.29 151.25 80.38 159.78 88.04 164.55 80.8 166.96 82.59" style="fill: #f2f2f2"/>
        <polygon points="171.84 86.48 164.19 80.8 159.42 88.04 165.25 87.47 171.84 86.48" style="fill: #231f20;opacity: 0.07;mix-blend-mode: multiply"/>
        <polygon points="172.2 86.48 164.55 80.8 159.78 88.04 165.61 87.47 172.2 86.48" style="fill: #fff"/>
        <polygon points="167.59 83.06 174.67 75.95 183.69 84.49 177.09 85.75 172.2 86.48 167.59 83.06" style="fill: #f2f2f2"/>
        <path d="M168,76.81l14.14-19.54-16-11.1S159.71,53.53,151.73,64Z" style="fill: #fff"/>
        <polygon points="139.97 79.71 144.48 74.3 159.78 88.04 156.4 88.34 155.36 88.44 154.28 88.51 139.97 79.71" style="fill: #f5f5f5"/>
        <polygon points="139.97 79.71 140.33 79.27 154.28 88.51 139.97 79.71" style="fill: #231f20;opacity: 0.07;mix-blend-mode: multiply"/>
        <polygon points="151.25 80.38 151.76 80.18 159.78 88.04 151.25 80.38" style="fill: #231f20;opacity: 0.07;mix-blend-mode: multiply"/>
        <path d="M172.2,86.48l4.89-.73,6.6-1.26-.38-.36c-3.55.62-7.69,1.28-11.72,1.89Z" style="fill: #231f20;opacity: 0.07;mix-blend-mode: multiply"/>
        <path d="M159.78,88l5.83-.57,6.59-1-.61-.46c-4.28.66-8.44,1.25-11.6,1.7Z" style="fill: #231f20;opacity: 0.07;mix-blend-mode: multiply"/>
        <g>
          <polygon points="132.46 72.53 141.29 79.97 135.59 87.87 128.55 81.74 132.46 72.53" style="fill: #dd887a"/>
          <path d="M141.93,79.57s-6.74,2.38-9.44,5.6-2.56,3.76-.47,5.35,3.21,2.32,3.21,2.32-1,.61-.87,1.21.45.94,1.49,1.07,4.28.48,5.92,2.44l11.41-6.5,1-3.81-5.58-4.73Z" style="fill: #eb9785"/>
          <path d="M151.42,98.69s-3.31,1-3.73,1.58a5.08,5.08,0,0,0-1.26,3.63c.26,1.58-1.9,2.2-2.76,1.93s-4.07.41-3.3-4.64c.7-4.62,3-8.56,7.68-10.15,1-.34,2.23-.64,2.71-1.61a2.7,2.7,0,0,0-1-3.08,22.33,22.33,0,0,0-5.35-3.2c-1.53-.67-5.47-1.86-4.09-4.74s5.65-3.47,9.65-.24,9.15,9,7.48,14.39S151.42,98.69,151.42,98.69Z" style="fill: #020d21"/>
        </g>
        <polygon points="56.53 128.8 59.75 132.24 57.54 135.55 53.39 132.78 56.53 128.8" style="fill: #e89583"/>
        <path d="M53.23,132.3a5,5,0,0,0-1.94,1.37c-.85,1-.2,2.29,1,3.1s7.44,5.6,7.44,5.6a2.16,2.16,0,0,0,.37-1.56c-.18-.84-2.15-5-2.15-5Z" style="fill: #ffc400"/>
        <path d="M54.49,130.36l4.8,4q5.67-11.46,11.23-23c2.11-4.37,4.47-8.65,6-13.28s1.91-9.3,4.25-13.59c1.38-2.55,3.59-6.85,6.62-7.75L86,50.87s-17.45-.59-30.84,10.49c-5.31,4.39-13,10.31-20.14,5L18.68,54.13l-4.24,3.2L24.46,69s6.33,7.63,8.77,9.2S41,83,45.47,83.24s12.25-.59,20.33-3.87c0,0-4.14,13.4-6.12,23.94C58,112.14,57.42,124.94,54.49,130.36Z" style="fill: #041c4d"/>
        <g>
          <path d="M62.85,142.41a17,17,0,0,1-2.94.31l-5.71.6c3.26,2.37,9.75,5.61,19.81,4.21a34,34,0,0,0,15.7-8Z" style="fill: #231f20;opacity: 0.07;mix-blend-mode: multiply"/>
          <path d="M90.27,139.65a50.25,50.25,0,0,1-18.57-5.23s-9.7,8.12-21.73,0c0,0,5.1,9.82,20.47,11A35.61,35.61,0,0,0,90.27,139.65Z" style="fill: #fff"/>
        </g>
        <path d="M132.79,36.17c2.11.79,2.74,2.5,1.9,4.76-1.51,4-5.65,2.93-6.75,6.3-.15.45-1,.38-1.4-.42,1.25-3.57,4.44-2.58,6-6.91.49-1.29.42-2.39-.46-2.72s-2.32.39-3.45,3.29c-1.23.14-2.07-.17-1.77-1C128.16,36.15,131,35.5,132.79,36.17Zm-6.54,12.76a1.42,1.42,0,0,1,.91,1.91,1.35,1.35,0,0,1-1.75.88,1.42,1.42,0,0,1-1-1.77A1.45,1.45,0,0,1,126.25,48.93Z" style="fill: #c9c9c9"/>
        <path d="M89.89,29.69c1.32-.28,2.19.39,2.48,1.81.52,2.53-1.94,3.28-1.42,5.34.07.27-.41.53-.85.23-.49-2.21,1.44-2.72.88-5.43-.17-.81-.55-1.35-1.1-1.23s-1.06.93-.71,2.77c-.58.46-1.1.57-1.2.07A2.78,2.78,0,0,1,89.89,29.69Zm.74,8.55a.86.86,0,0,1,1.08.68.81.81,0,0,1-.62,1,.84.84,0,0,1-1-.59A.86.86,0,0,1,90.63,38.24Z" style="fill: #d6d6d6"/>
        <g style="opacity: 0.8">
          <path d="M115.4,17.21c1.34.08,2,.95,1.91,2.38-.16,2.57-2.71,2.65-2.75,4.76,0,.28-.53.4-.87,0,.09-2.25,2.08-2.24,2.25-5,0-.82-.18-1.44-.74-1.47s-1.25.62-1.4,2.47c-.67.3-1.2.27-1.17-.24A2.77,2.77,0,0,1,115.4,17.21Zm-1.51,8.4a.85.85,0,0,1,.85.94.79.79,0,0,1-.84.8.84.84,0,0,1-.86-.84A.86.86,0,0,1,113.89,25.61Z" style="fill: #c9c9c9"/>
        </g>
        <path d="M154.2,38.74c1.08.07,1.61.76,1.54,1.91-.13,2.05-2.17,2.12-2.21,3.81,0,.22-.42.32-.7,0,.08-1.8,1.67-1.79,1.81-4,0-.66-.15-1.15-.59-1.18s-1,.5-1.12,2c-.54.24-1,.21-.94-.19A2.21,2.21,0,0,1,154.2,38.74ZM153,45.47a.69.69,0,0,1,.68.75.64.64,0,0,1-.68.64.67.67,0,0,1-.69-.67A.7.7,0,0,1,153,45.47Z" style="fill: #d6d6d6"/>
        <polygon points="107.34 85.4 107.97 83.86 119.42 85.91 118.93 86.82 107.34 85.4" style="fill: #e8a40c;opacity: 0.4"/>
        <path d="M207.72,97.24c-.82-5.84-10.76-8.74-14.84-13-1.16-1.2,11,2.52,9.6,1.25l-48.2,3V149.1c17.91-2,35.83-3.91,48-6.73a3.08,3.08,0,0,0,2.37-2.65c.83-7,3.34-29.54,3.09-42.48" style="fill: #1eb8e6"/>
        <path d="M202.48,85.51,201,85.6C202.15,85.83,202.87,85.87,202.48,85.51Zm-4.83-.62c-1.06.26-2.13.51-3.22.74l.48.35L201,85.6C200.05,85.43,198.85,85.16,197.65,84.89Zm10.07,12.35c-.7-5-8.14-7.87-12.81-11.26l-3.34.21c-18.06,3.31-37.29,2.32-37.29,2.32,5.42,11.43,17.29,26.23,17.29,26.23,11.18.67,24-3.79,36-8.84C207.73,102.5,208.06,99.72,207.72,97.24Z" style="fill: #231f20;opacity: 0.07;mix-blend-mode: multiply"/>
        <path d="M117.16,103.6c.76-3.25,5.06-8.19,10.73-15.19s6.3-10.58,6.3-10.58c.9-5.17-2.28-9.17-5.86-12.44A59.91,59.91,0,0,0,113.19,55.3a52.47,52.47,0,0,0-13.43-4.23,50.2,50.2,0,0,0-16.24-.2s-2.31-.5-2.42,1.36,3.2,21.81,4.05,24c.51,1.28,1.7,1.31,2.83.91a8,8,0,0,1,3.77-.7c6.89.67,17.36,4.82,22.73,9.32,0,0-4.26,7.11-5.49,9.22s-.57,15.51-.57,15.51l10.16,4.6S116.39,106.85,117.16,103.6Z" style="fill: #ffc400"/>
        <path d="M107.38,81.31a36.56,36.56,0,0,1,7.1,4.43l-1.42,2.37,12.64,3,2.19-2.69a50.13,50.13,0,0,0,4.23-6C127.72,81.89,113.59,81.47,107.38,81.31Z" style="fill: #eaae06"/>
        <path d="M207.72,77.43s12.75,12.24,23.64,17.34c0,0-37.42,17.35-60.21,16,0,0-11.45-10.82-16.87-22.25C154.28,88.51,187.65,86.27,207.72,77.43Z" style="fill: #4dd4f4"/>
        <g>
          <path d="M154.28,88.51V149.1S112.29,148,86.21,132a1.84,1.84,0,0,1-.87-1.38c-.48-4.62.09-51.14.09-51.14Z" style="fill: #20c4f4"/>
          <g>
            <path d="M154.28,88.51s-15.12,25.74-24.81,29.31c0,0-34.81-5.57-47.9-12l5-23.52Z" style="fill: #231f20;opacity: 0.23;mix-blend-mode: multiply"/>
            <path d="M154.28,88.51s-16.29,22.93-26,26.5c0,0-50.68-8.16-63.77-14.62L85.43,79.47Z" style="fill: #47ccf4"/>
            <path d="M130.41,90s-12,5.28-15.84,10-3,5.71-3,5.71S101.53,105,98,104.16s-5.86-1.58-6.89-3c0,0,16.14-12.94,18.33-15.12Z" style="fill: #231f20;opacity: 0.07;mix-blend-mode: multiply"/>
            <path d="M129.56,86.59s-12,5.27-15.83,10-3,5.72-3,5.72-10.08-.64-13.6-1.49-5.86-1.59-6.89-3c0,0,16.15-12.94,18.34-15.12Z" style="fill: #fff"/>
          </g>
        </g>
        <path d="M144.35,148.42s-5.73,6.72-8.51,8-36.07-6.27-36.07-6.27l39.46-2.26,5.12.55" style="fill: #231f20;opacity: 0.07;mix-blend-mode: multiply"/>
        <path d="M148.06,135.35s-15.13,4.35-23.84,3.61c0,0-.69,7.82-24.45,11.17l32.87,4.44S144.85,150.56,148.06,135.35Z" style="fill: #fff"/>
      </g>
    </g>
  </g>
</svg>
