<svg width="27" height="27" viewBox="0 0 27 27" fill="none" xmlns="http://www.w3.org/2000/svg">
<path d="M13.1484 26.1523C6.00346 26.1523 0.210938 20.3603 0.210938 13.2152C0.210938 6.07018 6.00346 0.277344 13.1484 0.277344H22.8519C24.6384 0.277344 26.0859 1.72593 26.0859 3.51219V13.2152C26.0859 20.3603 20.2934 26.1523 13.1484 26.1523Z" fill="#7052CC"/>
<path fill-rule="evenodd" clip-rule="evenodd" d="M13.1285 11.8404C14.5352 11.8404 15.6751 10.7007 15.6751 9.29382C15.6751 7.88697 14.5352 6.74646 13.1285 6.74646C11.721 6.74646 10.5811 7.88697 10.5811 9.29382C10.5811 10.7007 11.721 11.8404 13.1285 11.8404ZM18.761 16.4347C17.6441 18.3765 15.5493 19.6847 13.1483 19.6847C10.7607 19.6847 8.67405 18.3909 7.55493 16.4658C8.67034 14.5232 10.7652 13.2165 13.1654 13.2165C15.5537 13.2165 17.6396 14.5103 18.761 16.4347Z" fill="white"/>
</svg>
