<svg width="26" height="27" viewBox="0 0 26 27" fill="none" xmlns="http://www.w3.org/2000/svg">
<path fill-rule="evenodd" clip-rule="evenodd" d="M12.9619 0.277344H22.7214C24.5513 0.277344 26 1.72602 26 3.55594V13.3155C26 20.4826 20.2053 26.2773 13.0381 26.2773H12.9619C5.79472 26.2773 0 20.4826 0 13.3155C0 6.14831 5.79472 0.35359 12.9619 0.277344Z" fill="#DE3421"/>
<path fill-rule="evenodd" clip-rule="evenodd" d="M17.202 7.62321C16.7689 8.5969 16.4754 10.4841 16.4754 12.6518L16.4746 12.6526C16.4746 14.8203 16.7682 16.7075 17.2013 17.6819C17.2351 17.7554 17.2188 17.8423 17.1606 17.8985C17.1025 17.9548 17.0151 17.9682 16.9428 17.932L12.0475 15.5462C11.972 15.5096 11.8942 15.4776 11.8157 15.4494L12.1954 17.6041C12.2653 18.114 11.9197 18.588 11.4129 18.6774C10.9061 18.7667 10.4192 18.4396 10.3105 17.9366L9.81867 15.1467L9.73784 15.1367C8.4755 14.9915 7.52271 13.9228 7.52271 12.6522C7.52271 11.3816 8.4755 10.3129 9.73784 10.1676L11.2385 9.99454C11.5195 9.96195 11.7931 9.88203 12.0475 9.75817L16.9443 7.37311C17.0166 7.33746 17.1035 7.35115 17.1614 7.40728C17.2192 7.46342 17.2355 7.54987 17.202 7.62321ZM18.5501 14.6566C18.9489 14.6566 19.2722 13.7592 19.2722 12.6521C19.2722 11.5449 18.9489 10.6475 18.5501 10.6475C18.1513 10.6475 17.828 11.5457 17.828 12.6528C17.828 13.7592 18.1513 14.6566 18.5501 14.6566Z" fill="white"/>
</svg>
