<?xml version="1.0" encoding="utf-8"?>
<!-- Generator: Adobe Illustrator 25.2.2, SVG Export Plug-In . SVG Version: 6.00 Build 0)  -->
<svg version="1.1" id="Layer_1" xmlns="http://www.w3.org/2000/svg" xmlns:xlink="http://www.w3.org/1999/xlink" x="0px" y="0px"
	 viewBox="0 0 28 28" style="enable-background:new 0 0 28 28;" xml:space="preserve">
<style type="text/css">
	.st0{clip-path:url(#SVGID_2_);}
	.st1{fill-opacity:0.18;}
</style>
<g>
	<defs>
		<rect id="SVGID_1_" width="28" height="28"/>
	</defs>
	<clipPath id="SVGID_2_">
		<use xlink:href="#SVGID_1_"  style="overflow:visible;"/>
	</clipPath>
	<g class="st0">
		<path class="st1" d="M11,20.3C10.3,21,9.7,21.6,9.2,22l0.2,0.2c0.2,0.2,0.5,0.3,0.8,0.1c0.3-0.2,0.9-0.4,2-1.1l-1.1-1.1
			C11.1,20.3,11.1,20.3,11,20.3z"/>
		<path d="M11.7,17c-0.5-0.5-1.8,0-2.5,0.6c-2.1,2.1-3.1,3.6-3.5,4.5c-0.1,0.3-0.1,0.6,0.1,0.8C6,23,6.3,23,6.6,22.9
			c0.9-0.4,2.3-1.4,4.5-3.5C11.8,18.7,12.1,17.4,11.7,17z"/>
		<path d="M5.1,11.8l-1.9,1.9c-0.2,0.2-0.3,0.5-0.1,0.8c0.1,0.3,0.5,0.4,0.7,0.3c1-0.3,1.9-0.4,2.5-0.2c0.9-1.5,1.8-2.9,2.7-4.2
			C8.5,10,6.7,10.2,5.1,11.8z"/>
		<path d="M13.2,25.5c0.3,0.1,0.6,0.1,0.8-0.1l1.9-1.9c1.5-1.5,1.7-3.3,1.4-3.9c-1.4,1.1-2.8,2-4.2,2.7c0.1,0.5,0,1-0.2,2.5
			C12.8,25.1,13,25.4,13.2,25.5z"/>
		<path class="st1" d="M16.2,9.6c-0.8,0.8-0.8,2,0,2.8c0.8,0.8,2,0.8,2.8,0c0.8-0.8,0.8-2,0-2.8C18.2,8.9,16.9,8.9,16.2,9.6z"/>
		<path d="M20.8,7.8c-1.1-1.1-1.8-2.4-2-3.7c-4,1.6-7.8,5.2-10.8,10.2l1.5,1.5c1-0.4,2.3-0.5,3,0.3c0.8,0.8,0.7,2,0.3,3l1.5,1.5
			c3.9-2.3,8.3-6,10.2-10.8C23.3,9.6,22,8.9,20.8,7.8z M19.9,13.4c-1.3,1.3-3.4,1.3-4.7,0c-1.3-1.3-1.3-3.4,0-4.7
			c1.3-1.3,3.4-1.3,4.7,0C21.2,10,21.2,12.1,19.9,13.4z"/>
		<path class="st1" d="M6,17.7c-0.1,0.3-0.1,0.6,0.1,0.8l0.2,0.2c0.5-0.6,1-1.2,1.7-1.8c0,0,0.1-0.1,0.1-0.1l-1-1
			C6.5,16.7,6.1,17.5,6,17.7z"/>
		<path d="M25.6,3.6c0-0.3-0.3-0.6-0.6-0.6c-1.6-0.1-3.2,0.1-4.8,0.6c0.1,1.1,0.7,2.3,1.6,3.2c1,1,2.2,1.5,3.3,1.6
			C25.5,7,25.7,5.4,25.6,3.6z"/>
	</g>
</g>
</svg>
