<svg width="26" height="27" viewBox="0 0 26 27" fill="none" xmlns="http://www.w3.org/2000/svg">
<path d="M12.9619 0.301147H22.7214C24.5513 0.301147 26 1.74983 26 3.57974V13.3393C26 20.5064 20.2053 26.3011 13.0381 26.3011H12.9619C5.79472 26.3011 0 20.5064 0 13.3393C0 6.17212 5.79472 0.377394 12.9619 0.301147Z" fill="#E57300"/>
<path fill-rule="evenodd" clip-rule="evenodd" d="M16.25 8.80859C16.25 10.3792 14.9768 11.6523 13.4062 11.6523C11.8357 11.6523 10.5625 10.3792 10.5625 8.80859C10.5625 7.23803 11.8357 5.96484 13.4062 5.96484C14.9768 5.96484 16.25 7.23803 16.25 8.80859ZM12.2041 17.1544L7.3125 12.4649H19.5L14.6084 17.1544V19.7774H12.2041V17.1544Z" fill="white"/>
</svg>
